<svg xmlns="http://www.w3.org/2000/svg" xmlns:xlink="http://www.w3.org/1999/xlink" width="4535" zoomAndPan="magnify" viewBox="0 0 3401.25 2268.00001" height="3024" preserveAspectRatio="xMidYMid meet" version="1.0"><defs><g/><clipPath id="efe2ee42a6"><path d="M 0.375 0 L 3400.125 0 L 3400.125 2267 L 0.375 2267 Z M 0.375 0 " clip-rule="nonzero"/></clipPath><clipPath id="83f3668078"><path d="M 0.375 0 L 3399.800781 0 L 3399.800781 2266.785156 L 0.375 2266.785156 Z M 0.375 0 " clip-rule="nonzero"/></clipPath><clipPath id="b7e2505e5c"><rect x="0" width="3401" y="0" height="2267"/></clipPath></defs><g clip-path="url(#efe2ee42a6)"><path fill="#ffffff" d="M 0.375 0 L 3400.125 0 L 3400.125 2267 L 0.375 2267 Z M 0.375 0 " fill-opacity="1" fill-rule="nonzero"/><g transform="matrix(1, 0, 0, 1, 0.000000000000000056, -0.000000000000163562)"><g clip-path="url(#b7e2505e5c)"><g clip-path="url(#83f3668078)"><path fill="#000000" d="M 0.375 0 L 3399.800781 0 L 3399.800781 2266.785156 L 0.375 2266.785156 Z M 0.375 0 " fill-opacity="1" fill-rule="nonzero"/></g><g fill="#eb0028" fill-opacity="1"><g transform="translate(1214.270565, 1737.625041)"><g><path d="M 417.9375 -938.75 L 417.9375 -1006.78125 C 417.9375 -1053.757812 414.832031 -1082.648438 408.625 -1093.453125 C 402.414062 -1104.253906 385.539062 -1109.65625 358 -1109.65625 L 270.53125 -1109.65625 C 237.59375 -1109.65625 212.347656 -1105.46875 194.796875 -1097.09375 C 177.242188 -1088.726562 161.445312 -1073.476562 147.40625 -1051.34375 C 137.6875 -1036.21875 126.078125 -1012.457031 112.578125 -980.0625 C 90.984375 -927.144531 69.382812 -900.6875 47.78125 -900.6875 C 35.90625 -900.6875 26.863281 -906.757812 20.65625 -918.90625 C 14.445312 -931.050781 11.34375 -949.273438 11.34375 -973.578125 C 11.34375 -1044.316406 21.597656 -1102.632812 42.109375 -1148.53125 C 62.628906 -1194.425781 87.738281 -1217.375 117.4375 -1217.375 C 120.144531 -1217.375 125.816406 -1216.296875 134.453125 -1214.140625 C 164.691406 -1206.578125 193.851562 -1202.796875 221.9375 -1202.796875 L 748.40625 -1202.796875 C 776.488281 -1202.796875 805.648438 -1206.578125 835.890625 -1214.140625 C 844.523438 -1216.296875 850.191406 -1217.375 852.890625 -1217.375 C 883.128906 -1217.375 908.644531 -1194.289062 929.4375 -1148.125 C 950.226562 -1101.957031 960.625 -1043.773438 960.625 -973.578125 C 960.625 -949.816406 957.382812 -931.726562 950.90625 -919.3125 C 944.425781 -906.894531 934.972656 -900.6875 922.546875 -900.6875 C 900.953125 -900.6875 879.894531 -926.601562 859.375 -978.4375 C 845.875 -1011.914062 834.265625 -1036.21875 824.546875 -1051.34375 C 810.503906 -1073.476562 794.570312 -1088.726562 776.75 -1097.09375 C 758.9375 -1105.46875 733.289062 -1109.65625 699.8125 -1109.65625 L 612.328125 -1109.65625 C 585.335938 -1109.65625 568.867188 -1104.929688 562.921875 -1095.484375 C 556.984375 -1086.035156 554.015625 -1060.25 554.015625 -1018.125 L 554.015625 -605.859375 C 554.015625 -424.960938 555.769531 -300.492188 559.28125 -232.453125 C 562.789062 -164.421875 568.863281 -125.003906 577.5 -114.203125 C 581.820312 -108.265625 599.503906 -100.164062 630.546875 -89.90625 C 661.597656 -79.644531 677.125 -66.6875 677.125 -51.03125 C 677.125 -30.507812 662.273438 -15.789062 632.578125 -6.875 C 602.878906 2.03125 554.015625 6.484375 485.984375 6.484375 C 417.398438 6.484375 368.125 1.894531 338.15625 -7.28125 C 308.1875 -16.46875 293.203125 -31.050781 293.203125 -51.03125 C 293.203125 -66.6875 308.726562 -79.644531 339.78125 -89.90625 C 370.832031 -100.164062 388.785156 -108.535156 393.640625 -115.015625 C 402.285156 -125.816406 408.492188 -167.664062 412.265625 -240.5625 C 416.046875 -313.457031 417.9375 -435.222656 417.9375 -605.859375 Z M 417.9375 -938.75 "/></g></g></g></g></g></g></svg>